/* XPM */
static char *one_data[] = {
/* columns rows colors chars-per-pixel */
"16 16 2 1",
"  c Blue",
". c None",
/* pixels */
"................",
".......  .......",
"......   .......",
".....    .......",
"....     .......",
"....  .  .......",
".......  .......",
".......  .......",
".......  .......",
".......  .......",
".......  .......",
".......  .......",
".......  .......",
"....        ....",
"....        ....",
"................",
};
