/* XPM */
static char *two_data[] = {
/* columns rows colors chars-per-pixel */
"16 16 2 1",
"  c Green",
". c None",
/* pixels */
"................",
"......    ......",
".....      .....",
"....  ....  ....",
"...........  ...",
"...........  ...",
"...........  ...",
"..........  ....",
".........  .....",
"........  ......",
".......  .......",
"......  ........",
".....  .........",
"....        ....",
"...         ....",
"................",
};
