/* XPM */
static char *three_data[] = {
/* columns rows colors chars-per-pixel */
"16 16 2 1",
"  c Red",
". c None",
/* pixels */
"................",
".....      .....",
"....  ....  ....",
"...........  ...",
"...........  ...",
"...........  ...",
"..........  ....",
"........   .....",
"........   .....",
"..........  ....",
"...........  ...",
"...........  ...",
"...........  ...",
"....  ....  ....",
".....      .....",
"................",
};
