/* XPM */
static char *four_data[] = {
/* columns rows colors chars-per-pixel */
"16 16 2 1",
"  c Purple",
". c None",
/* pixels */
"................",
"................",
"..........  ....",
".........   ....",
"........    ....",
".......  .  ....",
"......  ..  ....",
".....  ...  ....",
"....  ....  ....",
"...  .....  ....",
"..            ..",
"..            ..",
"..........  ....",
"..........  ....",
"................",
"................",
};
