/* XPM */
static char *five_data[] = {
/* columns rows colors chars-per-pixel */
"16 16 2 1",
"  c magenta1",
". c None",
/* pixels */
"................",
"...          ...",
"...          ...",
"...  ...........",
"...  ...........",
"...  ...........",
"...       ......",
"...        .....",
"..........  ....",
"...........  ...",
"...........  ...",
"...........  ...",
"..........  ....",
"...        .....",
"...       ......",
"................",
};
