/* XPM */
static char *six_data[] = {
/* columns rows colors chars-per-pixel */
"16 16 2 1",
"  c VioletRed1",
". c None",
/* pixels */
"................",
".....       ....",
"....        ....",
"...   ..........",
"...  ...........",
"...  ...........",
"...  ...........",
"...        .....",
"...   ....  ....",
"...  ......  ...",
"...  ......  ...",
"...  ......  ...",
"....  ....  ....",
".....      .....",
"......    ......",
"................",
};
