/* XPM */
static char *eight_data[] = {
/* columns rows colors chars-per-pixel */
"16 16 2 1",
"  c Black",
". c None",
/* pixels */
"................",
".....      .....",
"....  ....  ....",
"...  ......  ...",
"...  ......  ...",
"...  ......  ...",
"....  ....  ....",
".....      .....",
".....      .....",
"....  ....  ....",
"...  ......  ...",
"...  ......  ...",
"...  ......  ...",
"....  ....  ....",
".....      .....",
"................",
};
