/* XPM */
static char *dead_data[] = {
/* columns rows colors chars-per-pixel */
"16 16 3 1",
"  c Gray0",
". c Yellow",
"/ c None",
/* pixels */
"//////     /////",
"////  .....  ///",
"/// ......... //",
"// ........... /",
"// . . ... . . /",
"/ ... ..... ... ",
"/ .. . ... . .. ",
"/ ............. ",
"/ ............. ",
"/ ....     .... ",
"// .. ..... .. /",
"// ........... /",
"/// ......... //",
"////  .....  ///",
"//////     /////",
"////////////////"
};
