/* XPM */
static char *mine_data[] = {
/* columns rows colors chars-per-pixel */
"20 20 42 1",
"  c Gray0",
"o c Gray0",
"O c Gray11",
"# c Gray18",
"% c Gray20",
"; c Gray47",
", c Gray50",
"2 c Gray51",
"5 c Gray53",
"6 c Gray54",
"9 c Gray57",
"w c Gray72",
"e c Gray73",
"t c Gray74",
"y c Gray75",
"p c Gray76",
"d c Gray85",
"+ c #272727",
"@ c #282828",
"$ c #323232",
"& c #343434",
"* c #353535",
"- c #777777",
": c #7b7b7b",
"> c #7c7c7c",
"< c #808080",
"1 c #818181",
"3 c #848484",
"4 c #868686",
"7 c #8b8b8b",
"8 c #8e8e8e",
"0 c #929292",
"q c #b6b6b6",
"r c #bbbbbb",
"u c #c0c0c0",
"i c #c1c1c1",
"s c #c6c6c6",
"f c #dadada",
"g c #e2e2e2",
"j c #fdfdfd",
"l c #fefefe",
". c None",
/* pixels */
"........t9t.........",
".........l..........",
"........i0i.........",
"........;+;.........",
"t.w4u..-# #-..u4q...",
"0l6&5f8+ooo+8f5&4...",
"p.t4---;<4<;---4r...",
"...d;%,j.j.j,%;d....",
"s.p8-<e.y8y.e<-8....",
"7.2@-...4*4...;+;...",
"<g-o-...r5r...> %-r.",
"3.:O;.........<  +8.",
"<g-o>.u5u.u5u.1 %-r.",
"7.2@,d5&8l8&5d<+;...",
"s.p8>;-5...5-;:8....",
"...d;$;d ..d;$;d....",
"p.t4-;:,:;:,:;-4r...",
"0l6&5f8@OOO@8f5&4...",
"t.w4u..,---,..u4q...",
"...................."
};
